:version 1.10
:name ASF
:units
  mass 1
  length 1
  angle deg
:documentation
  ASF file generated by Kaydara
:root
  axis xyz
  order  tx ty tz rx ry rz
  position 0 0 0
  orientation 0 0 0
:bonedata
  begin
    id 1
    name LeftUpLegDummy
    direction 1 -2.30186e-007 -8.31532e-007
    length 2.93387
    axis 0 0 0 xyz
  end
  begin
    id 2
    name LeftUpLeg
    direction -1.82929e-007 -1 -1.48925e-009
    length 17.3336
    axis -3.48766 0.00143442 -0.000521554 xyz
    dof rx ry rz
  end
  begin
    id 3
    name LeftLeg
    direction -1.82929e-007 -1 -5.23717e-011
    length 14.9995
    axis 3.68178 -0.00654042 -0.000282425 xyz
    dof rx ry rz
  end
  begin
    id 4
    name LeftFoot
    direction 8.31532e-007 -4.54534e-011 1
    length 6.74421
    axis 1.87234e-006 4.66016e-005 -5.96866e-006 xyz
    dof rx ry rz
  end
  begin
    id 5
    name LeftToes
    direction 0.00818058 -0.00485161 0.999955
    length 3.85048
    axis 1.06247e-005 4.65869e-005 -5.96999e-006 xyz
    dof rx ry rz
  end
  begin
    id 6
    name SpineDummy
    direction -5.8607e-008 0.943407 -0.331637
    length 5.93572
    axis 0 0 0 xyz
  end
  begin
    id 7
    name Spine
    direction -1.04988e-007 0.999988 0.00495137
    length 10.1015
    axis -0.001389 0.000121417 6.61666e-006 xyz
    dof rx ry rz
  end
  begin
    id 8
    name Spine1
    direction 0 0 0
    length 0
    axis -0.001389 0.00012144 6.56766e-006 xyz
    dof rx ry rz
  end
  begin
    id 9
    name RightShoulderDummy
    direction -0.98348 0.17941 -0.0240696
    length 3.59882
    axis -0.001389 0.00012144 6.56766e-006 xyz
  end
  begin
    id 10
    name RightShoulder
    direction -0.978693 0.204882 0.0135597
    length 2.70001
    axis 0.215806 0.000203631 -0.00679732 xyz
    dof rx ry rz
  end
  begin
    id 11
    name RightArm
    direction -1 3.85509e-006 8.31394e-007
    length 10.2459
    axis -23.2009 -0.134239 -0.964098 xyz
    dof rx ry rz
  end
  begin
    id 12
    name RightForeArm
    direction -1 3.85569e-006 8.3129e-007
    length 8.16799
    axis -9.92322 0.0658061 0.17887 xyz
    dof rx ry rz
  end
  begin
    id 13
    name RightHand
    direction -0.992843 -0.0414604 0.112003
    length 5.28593
    axis -0.00960638 0.00330669 -0.185225 xyz
    dof rx ry rz
  end
  begin
    id 14
    name LeftShoulder1Dummy
    direction 0.983523 0.179172 -0.0240748
    length 3.59866
    axis -0.001389 0.00012144 6.56766e-006 xyz
  end
  begin
    id 15
    name LeftShoulder1
    direction 0.978627 0.205195 0.0135605
    length 2.70019
    axis -0.001389 0.00012144 6.57583e-006 xyz
    dof rx ry rz
  end
  begin
    id 16
    name LeftArm
    direction 1 3.51895e-006 -8.60188e-007
    length 10.2459
    axis -23.1894 0.134785 0.967513 xyz
    dof rx ry rz
  end
  begin
    id 17
    name LeftForeArm
    direction 1 3.51921e-006 -7.32029e-007
    length 8.16799
    axis -9.91835 -0.0656957 -0.177789 xyz
    dof rx ry rz
  end
  begin
    id 18
    name LeftHand
    direction 0.992938 -0.0411636 0.11126
    length 5.32135
    axis -0.00960237 -0.00340661 0.185177 xyz
    dof rx ry rz
  end
  begin
    id 19
    name HEadDummy
    direction 1.01974e-006 0.999861 -0.016675
    length 2.99946
    axis -0.001389 0.00012144 6.56766e-006 xyz
  end
  begin
    id 20
    name HEad
    direction -0.0222689 0.980941 0.193023
    length 5.12695
    axis -0.001389 0.00012144 6.56766e-006 xyz
    dof rx ry rz
  end
  begin
    id 21
    name RightUpLegDummy
    direction -1 2.30186e-007 8.31532e-007
    length 2.93387
    axis 0 0 0 xyz
  end
  begin
    id 22
    name RightUpLeg
    direction -1.82966e-007 -1 1.56832e-007
    length 17.3336
    axis -3.4909 -0.000906625 0.00028951 xyz
    dof rx ry rz
  end
  begin
    id 23
    name RightLeg
    direction -1.82786e-007 -1 -1.80317e-007
    length 14.9995
    axis 3.68513 0.0193739 -0.131021 xyz
    dof rx ry rz
  end
  begin
    id 24
    name RightFoot
    direction 8.31721e-007 -4.63324e-011 1
    length 6.74421
    axis 4.81691e-005 -0.120479 -0.188785 xyz
    dof rx ry rz
  end
  begin
    id 25
    name RightToes
    direction 0.00124746 -0.014064 0.9999
    length 3.85082
    axis 0.000481921 0.542163 -0.142575 xyz
    dof rx ry rz
  end
:hierarchy
  begin
    root LeftUpLegDummy SpineDummy RightUpLegDummy
    LeftUpLegDummy LeftUpLeg
    LeftUpLeg LeftLeg
    LeftLeg LeftFoot
    LeftFoot LeftToes
    SpineDummy Spine
    Spine Spine1
    Spine1 RightShoulderDummy LeftShoulder1Dummy HEadDummy
    RightShoulderDummy RightShoulder
    RightShoulder RightArm
    RightArm RightForeArm
    RightForeArm RightHand
    LeftShoulder1Dummy LeftShoulder1
    LeftShoulder1 LeftArm
    LeftArm LeftForeArm
    LeftForeArm LeftHand
    HEadDummy HEad
    RightUpLegDummy RightUpLeg
    RightUpLeg RightLeg
    RightLeg RightFoot
    RightFoot RightToes
  end

:SAMPLES-PER-SECOND 30
:FULLY-SPECIFIED
:DEGREES
1
root  -22.9538 33.3937 -32.5432 0.82198 32.6048 -5.54987
LeftUpLeg  -23.2356 13.3926 9.45497
LeftLeg  24.2882 15.7222 5.81483
LeftFoot  8.61548 -0.189637 2.57369
LeftToes  -19.9931 1.61378e-006 8.80029e-008
Spine  2.50902 1.48208 2.75009
Spine1  4.90087 3.02609 5.34365
RightShoulder  0.143761 7.08314 8.30693
RightArm  -32.915 -14.2475 69.2173
RightForeArm  30.6102 15.0822 2.71823
RightHand  0.25999 -5.40136 -5.0207
LeftShoulder1  0.011237 1.09653 -9.88995
LeftArm  -10.7929 10.2231 -74.1121
LeftForeArm  32.9433 -16.8588 -3.05385
LeftHand  0.101947 3.18609 3.24256
HEad  7.82114 29.4806 0.0907145
RightUpLeg  -7.79277 -11.8717 9.05447
RightLeg  13.8886 1.99921 0.360666
RightFoot  -5.33984 -0.0301847 -0.189253
RightToes  -18.2112 -0.0807404 -0.16406
2
root  -22.9649 33.3914 -32.5512 0.80962 32.6399 -5.59796
LeftUpLeg  -23.2976 13.4539 9.47576
LeftLeg  24.3039 15.6349 5.7883
LeftFoot  8.62274 -0.188919 2.56251
LeftToes  -19.9997 1.61378e-006 8.80029e-008
Spine  2.52366 1.49936 2.75792
Spine1  4.93094 3.06319 5.35799
RightShoulder  0.143752 7.08034 8.28841
RightArm  -32.4811 -14.058 69.2909
RightForeArm  30.1846 15.4593 2.78985
RightHand  0.260719 -5.43907 -5.09014
LeftShoulder1  0.011237 1.10863 -9.87851
LeftArm  -10.6982 10.0005 -74.1173
LeftForeArm  32.8748 -16.9404 -3.06961
LeftHand  0.102829 3.1617 3.30372
HEad  7.38373 29.5543 0.0823945
RightUpLeg  -7.79769 -11.8413 9.11394
RightLeg  13.8172 1.92851 0.345478
RightFoot  -5.32869 -0.0306872 -0.18145
RightToes  -18.0825 -0.0807404 -0.16406
3
root  -22.9733 33.3894 -32.5598 0.804515 32.7311 -5.62166
LeftUpLeg  -23.3303 13.3641 9.48601
LeftLeg  24.2548 15.6431 5.77628
LeftFoot  8.68111 -0.190136 2.58145
LeftToes  -20.1184 1.61378e-006 8.80029e-008
Spine  2.52206 1.50419 2.76542
Spine1  4.92476 3.07623 5.37162
RightShoulder  0.143776 7.05884 8.31426
RightArm  -32.42 -13.8941 69.3395
RightForeArm  30.1284 15.6426 2.82466
RightHand  0.260605 -5.40496 -5.05805
LeftShoulder1  0.011237 1.08303 -9.89589
LeftArm  -10.7315 9.85662 -74.1181
LeftForeArm  32.8724 -16.8458 -3.0514
LeftHand  0.103033 3.18398 3.33636
HEad  7.01609 29.6195 0.11581
RightUpLeg  -7.829 -11.9235 9.14138
RightLeg  13.8103 1.91701 0.343187
RightFoot  -5.31789 -0.0308246 -0.179317
RightToes  -18.1575 -0.0807404 -0.16406
4
root  -22.9841 33.3858 -32.564 0.796739 32.8085 -5.64258
LeftUpLeg  -23.3872 13.3534 9.49314
LeftLeg  24.2754 15.5822 5.76077
LeftFoot  8.71893 -0.190258 2.58334
LeftToes  -20.1797 1.61378e-006 8.80029e-008
Spine  2.52767 1.50519 2.77304
Spine1  4.93393 3.08084 5.38571
RightShoulder  0.14381 7.01833 8.3417
RightArm  -32.2556 -13.7402 69.3823
RightForeArm  30.0294 15.7315 2.8416
RightHand  0.259091 -5.49444 -5.04108
LeftShoulder1  0.011237 1.08936 -9.89343
LeftArm  -10.76 9.76054 -74.1277
LeftForeArm  32.9471 -16.6945 -3.02229
LeftHand  0.102907 3.1483 3.30162
HEad  6.6699 29.7094 0.115717
RightUpLeg  -7.8633 -11.883 9.17948
RightLeg  13.8255 1.79675 0.322204
RightFoot  -5.3249 -0.0315626 -0.167856
RightToes  -18.2531 -0.0807404 -0.16406
5
root  -22.9923 33.3832 -32.5665 0.792646 32.8734 -5.64625
LeftUpLeg  -23.4172 13.3764 9.48071
LeftLeg  24.2609 15.5113 5.73096
LeftFoot  8.71225 -0.189352 2.56925
LeftToes  -20.1126 1.61378e-006 8.80029e-008
Spine  2.53323 1.51328 2.7806
Spine1  4.94393 3.099 5.4001
RightShoulder  0.143819 7.04092 8.37609
RightArm  -32.2304 -13.6909 69.403
RightForeArm  29.9897 15.7133 2.83817
RightHand  0.260137 -5.46107 -5.07421
LeftShoulder1  0.011237 1.08545 -9.89342
LeftArm  -10.7643 9.75698 -74.1258
LeftForeArm  32.9487 -16.5561 -2.99574
LeftHand  0.103046 3.15904 3.32092
HEad  6.38865 29.7152 0.106757
RightUpLeg  -7.89775 -11.9054 9.19492
RightLeg  13.8688 1.75863 0.316746
RightFoot  -5.36957 -0.0317237 -0.165354
RightToes  -18.1269 -0.0807404 -0.16406
